<svg width="250" height="76" viewBox="0 0 250 76" fill="none" xmlns="http://www.w3.org/2000/svg">
<g id="Info">
<path id="About me" d="M65.1763 43.8804L63.3578 48H60.0918L68.1083 29.8515H71.3743L79.3537 48H76.0877L74.2691 43.8804H65.1763ZM73.0444 41.0227L69.7413 33.5629L66.4382 41.0227H73.0444ZM95.6131 41.0227C95.6131 43.101 94.9698 44.8206 93.6832 46.1814C92.3966 47.5423 90.8626 48.2227 89.0811 48.2227C87.3244 48.2227 85.7533 47.4557 84.3677 45.9216V48H81.4729V28.7381H84.3677V36.6062C85.5306 34.8495 87.0275 33.9711 88.8585 33.9711C90.7636 33.9711 92.3595 34.6268 93.6461 35.9381C94.9574 37.2495 95.6131 38.9443 95.6131 41.0227ZM88.4131 45.6247C89.6007 45.6247 90.6028 45.2041 91.4193 44.3629C92.2605 43.4969 92.6811 42.4082 92.6811 41.0969C92.6811 39.7856 92.2605 38.6969 91.4193 37.8309C90.6028 36.9649 89.6131 36.532 88.4502 36.532C87.2873 36.532 86.31 36.9773 85.5182 37.868C84.7265 38.734 84.3306 39.8103 84.3306 41.0969C84.3306 42.4082 84.7265 43.4969 85.5182 44.3629C86.31 45.2041 87.2749 45.6247 88.4131 45.6247ZM105.257 45.6247C106.519 45.6247 107.558 45.2041 108.374 44.3629C109.216 43.5216 109.636 42.433 109.636 41.0969C109.636 39.7608 109.216 38.6722 108.374 37.8309C107.558 36.9897 106.519 36.5691 105.257 36.5691C103.995 36.5691 102.956 36.9897 102.139 37.8309C101.323 38.6722 100.915 39.7608 100.915 41.0969C100.915 42.433 101.323 43.5093 102.139 44.3258C102.956 45.1918 103.995 45.6247 105.257 45.6247ZM105.257 48.2227C103.178 48.2227 101.446 47.5423 100.061 46.1814C98.6753 44.7959 97.9826 43.101 97.9826 41.0969C97.9826 39.0928 98.6753 37.4103 100.061 36.0495C101.446 34.6639 103.178 33.9711 105.257 33.9711C107.335 33.9711 109.067 34.6639 110.453 36.0495C111.838 37.4103 112.531 39.0928 112.531 41.0969C112.531 43.0268 111.838 44.7093 110.453 46.1443C109.067 47.5299 107.335 48.2227 105.257 48.2227ZM125.47 34.1938H128.402V48H125.47V45.4763C125 46.3175 124.344 46.9856 123.503 47.4804C122.687 47.9753 121.808 48.2227 120.868 48.2227C119.284 48.2227 118.023 47.7402 117.082 46.7753C116.142 45.8103 115.672 44.4371 115.672 42.6557V34.1938H118.567V41.7649C118.567 44.3134 119.618 45.5876 121.722 45.5876C122.785 45.5876 123.676 45.2412 124.394 44.5485C125.111 43.8557 125.47 42.8907 125.47 41.6536V34.1938ZM136.153 36.532V43.5464C136.153 44.2144 136.326 44.7464 136.673 45.1423C137.044 45.5134 137.539 45.699 138.157 45.699C138.726 45.699 139.32 45.3897 139.939 44.7711L141.126 46.8495C140.087 47.7649 138.961 48.2227 137.749 48.2227C136.487 48.2227 135.423 47.7897 134.557 46.9237C133.691 46.033 133.258 44.8825 133.258 43.4722V36.532H131.514V34.1938H133.258V29.8515H136.153V34.1938H139.79V36.532H136.153ZM153.485 48H150.59V34.1938H153.485V36.6804C153.906 35.8392 154.536 35.1835 155.378 34.7134C156.219 34.2186 157.122 33.9711 158.087 33.9711C160.289 33.9711 161.774 34.8742 162.541 36.6804C163.901 34.8742 165.609 33.9711 167.662 33.9711C169.246 33.9711 170.508 34.4536 171.448 35.4186C172.388 36.3835 172.858 37.7567 172.858 39.5381V48H169.963V40.4289C169.963 37.8804 168.899 36.6062 166.772 36.6062C165.732 36.6062 164.854 36.9402 164.136 37.6082C163.444 38.2515 163.085 39.1546 163.06 40.3175V48H160.128V40.4289C160.128 39.1175 159.893 38.1526 159.423 37.534C158.953 36.9155 158.223 36.6062 157.233 36.6062C156.169 36.6062 155.279 36.9526 154.561 37.6454C153.844 38.3134 153.485 39.266 153.485 40.5031V48ZM189.798 42.3588H178.961C179.036 43.3485 179.493 44.1526 180.335 44.7711C181.176 45.3897 182.153 45.699 183.267 45.699C185.023 45.699 186.335 45.1546 187.201 44.066L188.871 45.8845C187.386 47.4433 185.444 48.2227 183.044 48.2227C181.064 48.2227 179.407 47.567 178.071 46.2557C176.735 44.9443 176.067 43.2124 176.067 41.0598C176.067 38.9567 176.747 37.2495 178.108 35.9381C179.469 34.6268 181.114 33.9711 183.044 33.9711C184.974 33.9711 186.582 34.5526 187.869 35.7155C189.155 36.8783 189.798 38.4247 189.798 40.3546V42.3588ZM186.904 40.0577C186.904 38.9443 186.545 38.066 185.827 37.4227C185.135 36.7794 184.231 36.4577 183.118 36.4577C182.005 36.4577 181.027 36.7918 180.186 37.4598C179.37 38.1278 178.961 38.9938 178.961 40.0577H186.904Z" fill="white"/>
<rect id="Rectangle 1" x="2.5" y="2.5" width="245" height="70" rx="2.5" stroke="white" stroke-width="5"/>
</g>
</svg>
