<svg width="250" height="76" viewBox="0 0 250 76" fill="none" xmlns="http://www.w3.org/2000/svg">
<path d="M81.4822 42.9897L83.4492 44.9938C81.5688 47.1464 79.243 48.2227 76.4719 48.2227C73.7255 48.2227 71.4368 47.3443 69.6059 45.5876C67.7997 43.8062 66.8966 41.567 66.8966 38.8701C66.8966 36.1485 67.8245 33.8969 69.6801 32.1155C71.5358 30.3093 73.8739 29.4062 76.6946 29.4062C79.4657 29.4062 81.8038 30.4454 83.709 32.5237L81.7791 34.6392C80.9131 33.7979 80.0966 33.2165 79.3296 32.8948C78.5626 32.5732 77.6595 32.4124 76.6203 32.4124C74.7647 32.4124 73.2059 33.0062 71.9441 34.1938C70.7069 35.3814 70.0884 36.8907 70.0884 38.7216C70.0884 40.5278 70.7069 42.0619 71.9441 43.3237C73.1812 44.5856 74.6533 45.2165 76.3605 45.2165C77.3997 45.2165 78.2904 45.0433 79.0327 44.6969C79.7997 44.3505 80.6162 43.7814 81.4822 42.9897ZM93.1474 45.6247C94.4093 45.6247 95.4484 45.2041 96.2649 44.3629C97.1062 43.5216 97.5268 42.433 97.5268 41.0969C97.5268 39.7608 97.1062 38.6722 96.2649 37.8309C95.4484 36.9897 94.4093 36.5691 93.1474 36.5691C91.8855 36.5691 90.8464 36.9897 90.0299 37.8309C89.2134 38.6722 88.8051 39.7608 88.8051 41.0969C88.8051 42.433 89.2134 43.5093 90.0299 44.3258C90.8464 45.1918 91.8855 45.6247 93.1474 45.6247ZM93.1474 48.2227C91.0691 48.2227 89.3371 47.5423 87.9515 46.1814C86.566 44.7959 85.8732 43.101 85.8732 41.0969C85.8732 39.0928 86.566 37.4103 87.9515 36.0495C89.3371 34.6639 91.0691 33.9711 93.1474 33.9711C95.2258 33.9711 96.9577 34.6639 98.3433 36.0495C99.7288 37.4103 100.422 39.0928 100.422 41.0969C100.422 43.0268 99.7288 44.7093 98.3433 46.1443C96.9577 47.5299 95.2258 48.2227 93.1474 48.2227ZM106.606 48H103.711V34.1938H106.606V36.6804C107.076 35.8392 107.719 35.1835 108.536 34.7134C109.377 34.2186 110.268 33.9711 111.208 33.9711C112.816 33.9711 114.091 34.4536 115.031 35.4186C115.971 36.3835 116.441 37.7567 116.441 39.5381V48H113.509V40.4289C113.509 37.8804 112.458 36.6062 110.354 36.6062C109.291 36.6062 108.4 36.9526 107.682 37.6454C106.965 38.3134 106.606 39.266 106.606 40.5031V48ZM124.044 36.532V43.5464C124.044 44.2144 124.217 44.7464 124.563 45.1423C124.934 45.5134 125.429 45.699 126.048 45.699C126.617 45.699 127.211 45.3897 127.829 44.7711L129.017 46.8495C127.978 47.7649 126.852 48.2227 125.639 48.2227C124.378 48.2227 123.314 47.7897 122.448 46.9237C121.582 46.033 121.149 44.8825 121.149 43.4722V36.532H119.404V34.1938H121.149V29.8515H124.044V34.1938H127.681V36.532H124.044ZM142.515 48H139.88V46.1443C138.717 47.5299 137.183 48.2227 135.278 48.2227C133.818 48.2227 132.618 47.8144 131.678 46.9979C130.763 46.1567 130.305 45.068 130.305 43.732C130.305 42.3959 130.8 41.3814 131.789 40.6887C132.779 39.9959 134.14 39.6495 135.872 39.6495H139.657V39.1299C139.657 37.299 138.631 36.3835 136.577 36.3835C135.29 36.3835 133.954 36.8536 132.569 37.7938L131.27 35.9753C132.977 34.6392 134.882 33.9711 136.985 33.9711C138.692 33.9711 140.041 34.4041 141.031 35.2701C142.02 36.1113 142.515 37.3856 142.515 39.0928V48ZM139.62 41.6907H136.354C134.251 41.6907 133.2 42.3464 133.2 43.6577C133.2 44.3258 133.459 44.8454 133.979 45.2165C134.499 45.5629 135.229 45.7361 136.169 45.7361C137.134 45.7361 137.95 45.4763 138.618 44.9567C139.286 44.4124 139.62 43.7072 139.62 42.8412V41.6907ZM145.674 41.0969C145.674 39.0186 146.391 37.3113 147.827 35.9753C149.262 34.6392 151.031 33.9711 153.134 33.9711C155.212 33.9711 156.969 34.6887 158.404 36.1237L156.697 38.2392C155.509 37.2 154.309 36.6804 153.097 36.6804C151.86 36.6804 150.796 37.0887 149.905 37.9052C149.039 38.6969 148.606 39.7237 148.606 40.9856C148.606 42.2722 149.039 43.3608 149.905 44.2515C150.796 45.1175 151.884 45.5505 153.171 45.5505C154.457 45.5505 155.682 44.9691 156.845 43.8062L158.552 45.6619C156.796 47.3691 154.853 48.2227 152.726 48.2227C150.746 48.2227 149.076 47.567 147.715 46.2557C146.354 44.9196 145.674 43.2 145.674 41.0969ZM165.106 36.532V43.5464C165.106 44.2144 165.279 44.7464 165.626 45.1423C165.997 45.5134 166.492 45.699 167.11 45.699C167.679 45.699 168.273 45.3897 168.892 44.7711L170.079 46.8495C169.04 47.7649 167.914 48.2227 166.702 48.2227C165.44 48.2227 164.376 47.7897 163.51 46.9237C162.644 46.033 162.211 44.8825 162.211 43.4722V36.532H160.467V34.1938H162.211V29.8515H165.106V34.1938H168.743V36.532H165.106ZM177.157 48.2227C174.93 48.2227 172.926 47.5299 171.145 46.1443L172.555 43.8804C174.138 45.0928 175.697 45.699 177.231 45.699C177.875 45.699 178.382 45.5505 178.753 45.2536C179.149 44.932 179.347 44.5361 179.347 44.066C179.347 43.3732 178.431 42.7546 176.6 42.2103C176.551 42.1856 176.489 42.1608 176.415 42.1361C176.365 42.1113 176.328 42.099 176.303 42.099C173.433 41.332 171.998 40.033 171.998 38.2021C171.998 36.9155 172.481 35.8887 173.446 35.1216C174.435 34.3546 175.734 33.9711 177.343 33.9711C178.926 33.9711 180.435 34.4412 181.87 35.3814L180.794 37.534C179.681 36.7918 178.456 36.4206 177.12 36.4206C175.561 36.4206 174.782 36.9155 174.782 37.9052C174.782 38.3258 174.93 38.6351 175.227 38.833C175.549 39.0062 176.068 39.1794 176.786 39.3526C177.875 39.6495 178.79 39.9464 179.532 40.2433C180.027 40.466 180.46 40.701 180.831 40.9485C181.771 41.5918 182.242 42.5691 182.242 43.8804C182.242 45.167 181.759 46.2186 180.794 47.0351C179.854 47.8268 178.642 48.2227 177.157 48.2227Z" fill="white"/>
<rect x="2.5" y="3.5" width="245" height="70" rx="2.5" stroke="white" stroke-width="5"/>
</svg>
