<svg width="250" height="76" viewBox="0 0 250 76" fill="none" xmlns="http://www.w3.org/2000/svg">
<path d="M66.735 48H63.6546V29.8515H68.4422L73.8979 41.2454L79.3907 29.8515H84.1412V48H81.0979V33.8227L74.7515 46.4041H73.0443L66.735 33.8227V48ZM87.0625 52.1196L88.3986 49.7814C89.0172 50.3505 89.6481 50.6351 90.2914 50.6351C90.91 50.6351 91.4296 50.4 91.8502 49.9299C92.2708 49.4845 92.4811 48.9773 92.4811 48.4082C92.4811 48.1856 90.6131 43.4474 86.877 34.1938H89.9945L94.1512 44.3629L98.2708 34.1938H101.388L94.6708 50.5979C94.2749 51.4887 93.7058 52.1938 92.9636 52.7134C92.2213 53.233 91.4048 53.4928 90.5141 53.4928C89.2275 53.4928 88.077 53.0351 87.0625 52.1196ZM117.27 48H113.93L109.18 34.1938H112.186L115.6 44.6227L119.052 34.1938H122.058L125.473 44.6227L128.924 34.1938H131.93L127.143 48H123.802L120.536 38.5361L117.27 48ZM140.854 45.6247C142.116 45.6247 143.155 45.2041 143.972 44.3629C144.813 43.5216 145.234 42.433 145.234 41.0969C145.234 39.7608 144.813 38.6722 143.972 37.8309C143.155 36.9897 142.116 36.5691 140.854 36.5691C139.593 36.5691 138.553 36.9897 137.737 37.8309C136.92 38.6722 136.512 39.7608 136.512 41.0969C136.512 42.433 136.92 43.5093 137.737 44.3258C138.553 45.1918 139.593 45.6247 140.854 45.6247ZM140.854 48.2227C138.776 48.2227 137.044 47.5423 135.659 46.1814C134.273 44.7959 133.58 43.101 133.58 41.0969C133.58 39.0928 134.273 37.4103 135.659 36.0495C137.044 34.6639 138.776 33.9711 140.854 33.9711C142.933 33.9711 144.665 34.6639 146.05 36.0495C147.436 37.4103 148.129 39.0928 148.129 41.0969C148.129 43.0268 147.436 44.7093 146.05 46.1443C144.665 47.5299 142.933 48.2227 140.854 48.2227ZM154.313 42.0619V48H151.418V34.1938H154.313V36.9402C154.783 36.0742 155.414 35.3691 156.206 34.8247C157.022 34.2804 157.876 33.9959 158.767 33.9711L158.804 36.9031H158.655C157.245 36.9031 156.169 37.3608 155.426 38.2763C154.684 39.1918 154.313 40.4536 154.313 42.0619ZM164.614 48H161.719V28.7381H164.614V40.0577L170.218 34.1938H173.966L168.733 39.6495L174.375 48H170.812L166.729 41.9505L164.614 44.066V48ZM181.587 48.2227C179.36 48.2227 177.356 47.5299 175.574 46.1443L176.985 43.8804C178.568 45.0928 180.127 45.699 181.661 45.699C182.304 45.699 182.811 45.5505 183.183 45.2536C183.578 44.932 183.776 44.5361 183.776 44.066C183.776 43.3732 182.861 42.7546 181.03 42.2103C180.98 42.1856 180.919 42.1608 180.844 42.1361C180.795 42.1113 180.758 42.099 180.733 42.099C177.863 41.332 176.428 40.033 176.428 38.2021C176.428 36.9155 176.91 35.8887 177.875 35.1216C178.865 34.3546 180.164 33.9711 181.772 33.9711C183.356 33.9711 184.865 34.4412 186.3 35.3814L185.224 37.534C184.11 36.7918 182.886 36.4206 181.55 36.4206C179.991 36.4206 179.211 36.9155 179.211 37.9052C179.211 38.3258 179.36 38.6351 179.657 38.833C179.978 39.0062 180.498 39.1794 181.216 39.3526C182.304 39.6495 183.22 39.9464 183.962 40.2433C184.457 40.466 184.89 40.701 185.261 40.9485C186.201 41.5918 186.671 42.5691 186.671 43.8804C186.671 45.167 186.189 46.2186 185.224 47.0351C184.284 47.8268 183.071 48.2227 181.587 48.2227Z" fill="white"/>
<rect x="2.5" y="3.5" width="245" height="70" rx="2.5" stroke="white" stroke-width="5"/>
</svg>
